Patient4_TMGait_0pt5_01_right_28_EMG.mot
version=1
nRows=33
nColumns=33
inDegrees=no
endheader
time	1LAddLong	2LGlutMax	3LGlutMed	4LIliopsoas	5LSemiMemb	6LBicFemLong	7LRecFem	8LVastMed	9LVastLat	10LGasMed	11LTibAnt	12lTibPost	13LPeroneusLong	14LSol	15LExtDigLong	16LFlexDigLong	17RAddLong	18RGlutMax	19RGlutMed	20RIliopsoas	21RSemiMemb	22RBicFemLong	23RRecFem	24RVastMed	25RVastLat	26RGasMed	27RTibAnt	28RTibPost	29RPeroneusLong	30RSol	31RExtDigLong	32RFlexDigLong
37.67	-0.006866	-0.080109	0.018311	0.016327	0.016479	0.002594	-0.022736	0.00473	-0.097504	0.005188	-0.001068	0.003204	0.001984	0.00946	-0.036469	0.026398	-0.070953	0.00412	-0.4454	-0.064545	-0.24399	-0.14679	0.074158	0.061188	0.036926	-0.000305	-0.13351	-0.015564	-0.26886	0.44205	-0.013428	0.004425
37.671	-0.00061	-0.080261	0.018921	0.019073	0.012054	0.041962	-0.027008	-0.009308	-0.019073	0.026245	0.03067	0.006256	-0.027924	0.024414	0.011902	0.017853	-0.093079	0.023346	0.14969	-0.024567	0.21744	-0.001526	0.19379	0.088959	-0.35904	0.066223	-0.16571	-0.066833	0.10117	0.52887	-0.012054	-0.002136
37.672	-0.004272	-0.05188	0.006866	0.004425	0.011139	0.07431	0.018616	-0.006256	0.041351	0.078583	0.058899	0.019226	-0.028534	0.030365	0.060425	0.00885	-0.1413	-0.00946	1.2013	0.059814	0.40588	0.084534	0.065765	0.22995	-0.63416	0.054932	-0.10025	-0.032654	0.15198	0.50247	-0.008545	-0.005798
37.673	-0.004883	-0.020905	-0.005341	0.005341	-0.005035	0.055389	0.037842	-0.003662	0.081177	0.097656	-0.01236	0.012207	0.008698	0.063934	0.079498	0.020447	-0.098572	-0.053558	0.82764	0.12558	0.31509	0.12283	0.063019	0.14816	-0.26657	0.001678	0.080566	0.012054	-0.075684	0.32455	-0.007324	-0.015106
37.674	-0.004883	-0.032501	0.026093	0.006561	-0.024414	-0.062561	0.065918	0.003204	0.036926	0.12238	-0.018005	0.019073	0.021362	0.049744	0.069122	0.007324	-0.029602	-0.034332	0.30655	0.13107	0.17288	0.14023	0.14511	0.027466	-0.10117	0.003204	0.34668	0.006256	-0.11353	-0.053864	-0.007477	-0.011292
37.675	-0.014801	-0.0177	0.03952	0.009003	-0.021515	-0.096436	0.084534	0.006409	0.03006	0.11749	0.040131	0.012665	0.014496	0.060577	0.047913	-0.004883	-0.007324	-0.033875	0.14801	-0.001221	0.19699	0.064392	0.048981	0.035858	-0.027313	0.002136	0.39444	-0.086823	0.23132	-0.22385	-0.007019	-0.019836
37.676	-0.017853	0.01358	0.003204	0.015106	-0.004272	-0.078735	0.042572	-0.003204	0.00412	0.10681	0.13077	0.028992	0.010529	0.063477	0.065155	0.010834	-0.019531	-0.000458	0.11917	-0.052948	0.1918	-0.088959	-0.000153	0.024414	0.010986	-0.014648	0.19836	-0.10925	0.43518	-0.43549	-0.007019	-0.016022
37.677	-0.009003	0.018921	-0.009003	0.013123	0.027618	-0.086823	0.019531	-0.007935	0.028839	-0.001831	0.17227	0.009308	0.04364	0.067139	0.024109	-0.006409	0.018158	-0.005188	0.055695	0.006714	-0.075378	-0.17593	0.014496	-0.050201	0.020905	-0.025024	-0.17014	-0.027924	0.53879	-0.29663	-0.014343	-0.014038
37.678	0.003967	-0.014496	-0.020142	0.012207	-0.001068	-0.13016	-0.039063	-0.021515	0.10834	-0.10712	0.13168	0.000763	0.017242	0.067444	-0.049896	-0.011749	0.038757	0.090485	0.050812	0.061951	-0.32959	-0.12634	0.053253	-0.04837	0.014191	-0.018158	-0.32211	0.069275	0.40817	-0.12161	-0.004883	-0.011292
37.679	0.00824	-0.001526	-0.009308	0.002594	0.014648	-0.11505	-0.028839	0.003204	0.14847	-0.048523	0.038147	0.00412	-0.023499	0.029297	0.24979	0.005646	0.02594	0.1413	0.053711	0.10162	-0.40955	-0.10208	0.00946	-0.024109	0.027313	-0.004425	-0.20676	0.12054	0.21759	-0.011444	-0.005188	-0.017548
37.68	0.009308	-0.042572	-0.033417	-0.002136	0.06073	-0.11215	0.002136	-0.054779	0.12833	-0.013428	-0.068359	0.005951	-0.051727	0.05722	0.34851	-0.011597	0.00946	0.14999	0.020905	0.069122	-0.14694	-0.075989	-0.005646	-0.008545	0.057678	0.009308	-0.033417	0.028229	0.17761	0.13733	-0.008545	-0.0177
37.681	0.008087	-0.12436	-0.077057	0.006561	0.077209	-0.14328	0.031433	-0.028381	-0.024719	0.006561	-0.078278	0.003204	-0.076141	0.077515	0.020447	-0.001068	-0.015411	0.13062	0.016327	0.049591	0.39948	-0.017395	-0.021667	0.051117	0.070496	-0.010986	0.10147	-0.020142	0.14923	0.11917	-0.004578	-0.016174
37.682	0.003204	-0.13489	-0.078583	0.028992	0.072479	-0.12451	0.030212	-0.019073	-0.14023	-0.012665	-0.026703	0.009613	-0.02533	0.12131	-0.019684	-0.006104	0.004578	0.10315	0.050354	-0.023041	-0.018005	0.074768	0.04715	-0.005341	0.063934	-0.034332	0.19913	-0.035095	0.13916	-0.12131	-0.008545	-0.015106
37.683	0.00824	-0.12894	-0.081635	0.005493	0.048981	-0.007782	0.078125	-0.00946	-0.25818	-0.081635	-0.081024	0.004883	0.052185	0.088501	-0.067902	0.010071	-0.01297	0.096893	0.11429	0.008545	0.093384	0.032959	0.080872	0.013733	0.066223	-0.043793	0.19531	-0.025177	0.14236	-0.34424	-0.004883	-0.011597
37.684	0.001068	-0.11154	-0.067596	0.021667	-0.030518	0.02182	0.068054	0.000305	-0.23911	-0.049438	-0.047913	0.010071	0.05249	0.073242	-0.17273	-0.002289	0.014496	0.10407	0.071869	0.025635	0.30411	0.1149	0.028687	-0.00473	0.068665	-0.071106	0.067291	-0.019226	0.37231	-0.23117	-0.006714	-0.000458
37.685	0.008087	-0.093994	-0.079956	0.00061	-0.038147	-0.014343	0.047455	0.014648	-0.14755	-0.0177	-0.033417	0.009308	-0.00351	0.022888	-0.26138	-0.008698	0.063171	0.055542	0.057831	-0.031128	0.12604	0.13062	0.010223	-0.09201	0.030518	-0.09201	-0.009766	-0.003815	0.46066	-0.014648	-0.008698	0
37.686	0.016327	-0.04425	-0.079651	0.01297	0.035095	-0.072327	0.04425	0.00351	-0.092468	-0.000763	0.002594	0.001068	-0.04715	0.023499	-0.20966	0.000458	0.103	0.1091	0.032349	-0.074005	-0.13123	0.099182	-0.059357	-0.058136	0.047455	-0.02121	-0.036926	-0.002289	0.31616	0.24475	-0.013123	-0.01236
37.687	0.018005	0.010223	-0.07782	-0.007324	0.048676	-0.19455	0.075226	0.013123	0.003967	0.02655	-0.006104	0.013275	-0.040436	0.068054	-0.11154	-0.004272	0.091705	0.084534	-0.067291	-0.048218	-0.48996	0.18097	-0.059052	-0.12695	0.067444	0.056915	0.015564	-0.010529	0.071106	0.76843	-0.006256	-0.011597
37.688	0.010681	0.049591	-0.005493	0.011444	0.011902	-0.15457	0.18601	0.019836	-0.012665	0.01236	-0.033569	0.016937	-0.062561	-0.007324	-0.024567	-0.00061	0.037537	0.10117	-0.035706	-0.018768	-0.48202	0.18555	-0.033112	-0.11353	0.076141	0.069122	0.22278	-0.040588	-0.15839	0.43732	-0.007172	-0.011902
37.689	-0.006256	0.07309	0.042572	0.006714	0.013123	-0.00946	0.20584	0.020294	0.007324	-0.035248	-0.064392	0.010681	-0.10376	-0.092926	0.037079	-0.001526	0.023804	0.10941	-0.03891	-0.008545	-0.20187	0.15884	-0.040436	-0.074768	0.076904	-0.015717	0.57968	-0.0914	-0.19699	-0.093231	-0.009308	-0.018158
37.69	-0.016022	0.024261	0.030823	0.007477	-0.0354	0.032196	0.10239	0.011444	-0.063019	-0.020905	-0.081329	0.01297	-0.055389	-0.1059	0.043182	-0.004425	0.06134	0.0914	0.036926	-0.011444	-0.18036	0.049133	-0.014343	-0.11093	0.050354	-0.014648	0.80505	0.030212	-0.23315	0.049286	-0.007935	-0.020752
37.691	-0.010681	-0.020752	0.059052	0.015411	-0.062256	0.034027	0.026398	0.006409	-0.14374	-0.05188	-0.070343	0.004578	-0.006561	-0.078278	0.032196	0.007629	0.066681	0.112	0.34653	-0.004883	-0.20706	-0.11154	-0.052185	-0.12558	0.053558	-0.012054	1.115	0.009613	-0.2095	0.07019	-0.007172	-0.025482
37.692	-0.010223	0.016022	0.066833	0.001221	-0.079498	0.11276	-0.00351	0.015564	-0.13855	-0.028687	-0.024109	0.016022	-0.038757	-0.063019	0.011597	0.002899	-0.034027	0.16342	0.071564	0.026855	0.29205	-0.28824	-0.1091	0.030823	0.064545	-0.006866	0.77057	-0.015106	-0.038605	-0.15778	-0.00824	-0.02655
37.693	-0.002441	0.041656	0.045471	0.00824	-0.055084	0.20416	-0.068817	0.00351	-0.11673	0.018463	-0.002594	0.001526	0.009308	-0.028076	0.028381	0.005035	-0.086823	0.2623	0.040283	0.028992	0.62637	-0.27817	-0.15808	0.092621	0.081635	0.003967	-0.57068	-0.01358	0.19089	-0.062714	-0.005341	-0.01709
37.694	-0.014191	0.059052	0.057373	0.009003	-0.06546	0.1474	-0.069885	0.006866	0.019073	0.11108	-0.007477	0.001984	-0.000305	-0.030518	0.045929	0.009003	-0.038757	0.16907	0.012207	0.007782	0.52597	-0.2301	-0.078888	0	0.084229	0.014496	-2.0221	-0.001221	0.36529	0.25681	-0.008087	-0.016785
37.695	-0.017242	0.035553	0.059357	0.005646	-0.06073	0.050049	-0.009308	0.014801	0.14221	0.12909	-0.010986	0.013885	-0.014648	-0.012512	0.045013	0.004578	-0.010681	0.18829	0.04303	0.000305	0.21912	-0.24689	-0.056458	-0.087433	0.046997	0.012207	-1.6785	0.019989	0.053558	0.10757	-0.004272	-0.019226
37.696	-0.034027	0.061493	0.057831	0.002899	-0.013275	0.02533	0.1358	0.028534	0.23407	0.093689	0.051422	0.013733	-0.013733	-0.016785	0.020599	-0.000153	-0.04837	0.10681	0.004425	-0.016174	0.016632	-0.19012	-0.09552	-0.16953	0.029449	0.012665	-1.115	-0.006866	-0.13611	-0.20996	-0.003815	-0.021973
37.697	-0.014496	0.024414	0.045166	0.004578	0.1152	-0.042419	0.12558	0.032196	0.23285	0.081024	0.065155	0.010834	-0.012512	-0.005798	0.021057	0.000458	-0.031433	0.15747	0.12985	-0.049744	-0.16342	0.02121	-0.083466	-0.19791	0.029755	0.01236	-0.25055	-0.01297	0.00473	-0.42602	-0.00824	-0.022888
37.698	0.017242	0.056458	0.043793	0.001831	0.11398	-0.12421	0.034485	0.021973	0.18829	0.065002	0.095825	0.015564	-0.03891	-0.006409	0.054779	-0.010223	0.001068	0.27268	0.16007	-0.047455	-0.12528	-0.13199	-0.15091	-0.090027	0.03952	-0.01358	-0.17807	-0.01236	0.13245	-0.44189	-0.006714	-0.020905
37.699	0.015717	-0.036011	0.057373	0.011597	0.053711	-0.25375	0.019836	0.022125	0.16464	0.039368	0.029144	0.005646	-0.030975	0.00412	0.074158	0.005951	0.040588	0.17624	0.016785	-0.060577	-0.25406	-0.21713	-0.15015	-0.03952	0.059052	-0.035706	-0.24674	-0.006561	-0.020294	-0.40283	-0.005798	-0.019836
37.7	0.014648	-0.087433	0.079498	0.006104	0.002747	-0.30228	0.048065	0.005188	0.14236	0.03891	-0.019684	0.018616	-0.0354	-0.003357	0.035095	0.002136	0.024414	0.18753	0.14481	-0.12985	-0.21133	-0.29984	-0.21912	0.051117	0.078125	-0.031891	-0.32471	-0.001831	-0.10696	-0.35965	-0.004883	-0.00946
37.701	0.025482	-0.08728	0.051575	0.023193	-0.045319	-0.40955	0.10895	-0.005188	0.14069	0.023956	-0.005798	0.007172	-0.043793	0.037384	-0.009766	0.006561	-0.024872	0.21088	0.085144	-0.18326	-0.31158	-0.12405	-0.233	0.15366	0.088959	-0.020752	0.010681	-0.007782	-0.009308	-0.092621	-0.005798	-0.020752
37.702	0.022278	-0.078583	0.10376	0.014496	-0.052948	-0.16586	0.10651	0.005188	0.0737	0.014191	-0.026398	0.016632	-0.033875	0.072937	-0.010223	0.001526	-0.021973	0.26032	0.1445	-0.12955	-0.39642	0.23804	-0.25238	0.099792	0.097809	0.000305	0.25909	-0.009003	0.083923	0.21698	-0.005493	-0.020905
